# xmcd
#
# Track frame offsets:
#	150
#	19922
#	32505
#	44382
#	55747
#	69245
#	81197
#	95957
#	114725
#	126057
#	145412
#	161422
#	176182
#	189800
#	204067
#	221510
#
# Disc length: 3109 seconds
#
# Revision: 1
# Processed by: cddbd v1.4PL0 Copyright (c) Steve Scherf et al.
# Submitted via: audiograbber 1.80
#
DISCID=db0c2310
DTITLE=Various Artist - Thomas Jeier Präsentiert Den Country Club - CD 2
DYEAR=1900
DGENRE=
TTITLE0=K.T. Oslin - Hey Bobby
TTITLE1=Marc Chesnutt - Your Love Is A Miracle
TTITLE2=Tanya Tucker - Walking Shoes
TTITLE3=Patty Loveless - Timber I'm Falling In Love
TTITLE4=Shenandoah - The Curch On Chumberland Road
TTITLE5=Restless Heart - You Can Depend On Me
TTITLE6=Diamond Rio - Meet In The Middle
TTITLE7=Ronnie Milsap - Strangers In My House
TTITLE8=Highway 101 - Bing Bang Boom
TTITLE9=John Brack - Borderline
TTITLE10=Gudrun Lange and Kaktus - Solang Ich Dich Noch Fühle
TTITLE11=Western Union - Auf Der Autobahn
TTITLE12=Truck Stop - Hillie Billy Country Lillie
TTITLE13=The Kentucky Headhunters - Oh Lonesome Me
TTITLE14=Alabama - Mountain Music
TTITLE15=Johnny Cash - Ring Of Fire
EXTD=
EXTT0=
EXTT1=
EXTT2=
EXTT3=
EXTT4=
EXTT5=
EXTT6=
EXTT7=
EXTT8=
EXTT9=
EXTT10=
EXTT11=
EXTT12=
EXTT13=
EXTT14=
EXTT15=
PLAYORDER=
